<svg width="340.90625px" height="121.39998168945313px" xmlns="http://www.w3.org/2000/svg" viewBox="79.546875 14.300009155273436 340.90625 121.39998168945313" preserveAspectRatio="xMidYMid"><defs><filter id="editing-vintage" x="-100%" y="-100%" width="300%" height="300%"><feConvolveMatrix in="SourceGraphic" result="extrude" order="9,9" divisor="1" kernelMatrix="1,0,0,0,0,0,0,0,0,0,1,0,0,0,0,0,0,0,0,0,1,0,0,0,0,0,0,0,0,0,1,0,0,0,0,0,0,0,0,0,1,0,0,0,0,0,0,0,0,0,1,0,0,0,0,0,0,0,0,0,1,0,0,0,0,0,0,0,0,0,1,0,0,0,0,0,0,0,0,0,1"> </feConvolveMatrix><feFlood flood-color="#900" result="flood-extrude"></feFlood><feComposite operator="in" in="flood-extrude" in2="extrude" result="extrude-color"></feComposite><feOffset dx="5" dy="5" in="extrude-color" result="extrude-offset"></feOffset><feColorMatrix in="SourceGraphic" result="stroke" type="matrix" values="0 0 0 0 0 0 0 0 0 0 0 0 0 0 0 0 1 0 0 0 "></feColorMatrix><feColorMatrix in="SourceGraphic" result="fill" type="matrix" values="0 0 0 0 0 0 0 0 0 0 0 0 0 0 0 1 0 0 1 0 "></feColorMatrix><feConvolveMatrix in="stroke" result="inner-shadow" order="5,5" divisor="1" kernelMatrix="1 0 0 0 0 0 1 0 0 0 0 0 1 0 0 0 0 0 1 0 0 0 0 0 1 "></feConvolveMatrix><feOffset dx="1" dy="1" in="inner-shadow" result="offset"></feOffset><feComposite operator="in" in="offset" in2="SourceAlpha" result="comp"></feComposite><feFlood flood-color="#000" result="flood3"></feFlood><feComposite operator="in" in="flood3" in2="comp" result="comp2"></feComposite><feColorMatrix in="comp2" result="comp3" type="matrix" values="1 0 0 0 0 0 1 0 0 0 0 0 1 0 0 0 0 0 0.5 0 "></feColorMatrix><feFlood flood-color="#f00" result="flood1"></feFlood><feComposite operator="in" in="flood1" in2="fill" result="fill2"></feComposite><feFlood flood-color="#fff" result="flood2"></feFlood><feComposite operator="in" in="flood2" in2="stroke" result="stroke2"></feComposite><feMerge result="obj"><feMergeNode in="extrude-offset"></feMergeNode><feMergeNode in="fill2"></feMergeNode><feMergeNode in="comp3"></feMergeNode></feMerge><feConvolveMatrix in="SourceAlpha" result="shadow" order="9,9" divisor="1" kernelMatrix="1,0,0,0,0,0,0,0,0,0,1,0,0,0,0,0,0,0,0,0,1,0,0,0,0,0,0,0,0,0,1,0,0,0,0,0,0,0,0,0,1,0,0,0,0,0,0,0,0,0,1,0,0,0,0,0,0,0,0,0,1,0,0,0,0,0,0,0,0,0,1,0,0,0,0,0,0,0,0,0,1"></feConvolveMatrix><feOffset dx="15" dy="15" in="shadow" result="shadow-offset"></feOffset><feFlood flood-color="#444444" result="flood-shadow"></feFlood><feComposite operator="in" in="flood-shadow" in2="shadow-offset" result="shadow-color"></feComposite><feMerge><feMergeNode in="shadow-color"></feMergeNode><feMergeNode in="obj"></feMergeNode></feMerge></filter></defs><g transform="translate(-9,-9)"><g filter="url(#editing-vintage)"><g transform="translate(132.1449862420559, 99)"><path d="M30.21-33.92L30.21-33.92L30.21-33.92Q25.02-33.92 21.25-35.65L21.25-35.65L19.20-25.28L31.55-25.28L31.55-25.28Q31.55-21.89 29.86-19.74L29.86-19.74L29.86-19.74Q28.16-17.60 25.09-17.60L25.09-17.60L25.09-17.60Q21.76-17.60 18.69-18.82L18.69-18.82L18.69-18.82Q18.05-19.07 17.98-19.14L17.98-19.14L14.34 0L0.38 0L8.51-42.24L37.06-42.24L37.06-42.24Q37.06-38.34 35.23-36.13L35.23-36.13L35.23-36.13Q33.41-33.92 30.21-33.92ZM50.75-3.52L50.75-3.52L50.75-3.52Q48.77 1.28 42.43 1.28L42.43 1.28L42.43 1.28Q39.23 1.28 37.18-0.96L37.18-0.96L37.18-0.96Q35.52-2.82 35.52-4.93L35.52-4.93L35.52-4.93Q35.52-9.73 37.76-20.22L37.76-20.22L42.43-44.80L55.42-46.08L49.22-13.70L49.22-13.70Q48.13-8.96 48.13-7.30L48.13-7.30L48.13-7.30Q48.13-3.65 50.75-3.52ZM71.55-3.52L71.55-3.52L71.55-3.52Q69.57 1.28 63.23 1.28L63.23 1.28L63.23 1.28Q59.97 1.28 57.92-0.96L57.92-0.96L57.92-0.96Q56.19-2.94 56.19-4.93L56.19-4.93L56.19-4.93Q56.19-10.11 58.56-20.22L58.56-20.22L60.93-32.64L73.92-33.92L70.02-13.70L70.02-13.70Q68.93-8.96 68.93-7.30L68.93-7.30L68.93-7.30Q68.93-3.65 71.55-3.52ZM62.08-41.54L62.08-41.54L62.08-41.54Q62.08-44.03 64.16-45.38L64.16-45.38L64.16-45.38Q66.24-46.72 69.25-46.72L69.25-46.72L69.25-46.72Q72.26-46.72 74.08-45.38L74.08-45.38L74.08-45.38Q75.90-44.03 75.90-41.54L75.90-41.54L75.90-41.54Q75.90-39.04 73.89-37.76L73.89-37.76L73.89-37.76Q71.87-36.48 68.86-36.48L68.86-36.48L68.86-36.48Q65.86-36.48 63.97-37.76L63.97-37.76L63.97-37.76Q62.08-39.04 62.08-41.54ZM85.50 0.19L85.50 0.19L85.50 0.19Q83.46 1.28 80.64 1.28L80.64 1.28L80.64 1.28Q77.82 1.28 76.29-0.16L76.29-0.16L76.29-0.16Q74.75-1.60 74.75-4.38L74.75-4.38L74.75-4.38Q74.75-7.17 76.70-9.89L76.70-9.89L76.70-9.89Q78.66-12.61 81.57-14.14L81.57-14.14L81.57-14.14Q84.48-15.68 86.53-16.58L86.53-16.58L82.50-25.86L82.50-25.86Q81.41-28.22 79.36-28.22L79.36-28.22L78.85-28.16L78.66-28.16L78.66-28.16Q79.04-30.40 81.66-32.13L81.66-32.13L81.66-32.13Q84.29-33.92 87.30-33.92L87.30-33.92L87.30-33.92Q92.16-33.92 94.40-29.06L94.40-29.06L94.91-28.03L97.66-21.25L97.66-21.25Q99.39-22.02 100.13-23.46L100.13-23.46L100.13-23.46Q100.86-24.90 100.86-27.74L100.86-27.74L100.86-27.74Q100.86-30.59 99.33-32.38L99.33-32.38L99.33-32.38Q101.76-33.92 104.96-33.92L104.96-33.92L104.96-33.92Q110.72-33.92 110.72-28.35L110.72-28.35L110.72-28.35Q110.72-22.27 103.10-18.75L103.10-18.75L99.26-16.96L102.72-8.06L102.72-8.06Q103.74-5.38 105.60-4.22L105.60-4.22L105.60-4.22Q106.37-3.71 107.26-3.65L107.26-3.65L107.26-3.65Q105.34-0.51 101.18 0.90L101.18 0.90L101.18 0.90Q99.90 1.28 98.18 1.28L98.18 1.28L98.18 1.28Q96.45 1.28 94.46 0.10L94.46 0.10L94.46 0.10Q92.48-1.09 91.78-2.94L91.78-2.94L88.26-12.10L88.26-12.10Q84.67-10.50 84.67-4.67L84.67-4.67L84.67-4.67Q84.67-1.98 85.50 0.19ZM141.57-33.92L141.57-33.92L141.57-33.92Q136.38-33.92 132.61-35.65L132.61-35.65L130.56-25.28L142.91-25.28L142.91-25.28Q142.91-21.89 141.22-19.74L141.22-19.74L141.22-19.74Q139.52-17.60 136.45-17.60L136.45-17.60L136.45-17.60Q133.12-17.60 130.05-18.82L130.05-18.82L130.05-18.82Q129.41-19.07 129.34-19.14L129.34-19.14L125.70 0L111.74 0L119.87-42.24L148.42-42.24L148.42-42.24Q148.42-38.34 146.59-36.13L146.59-36.13L146.59-36.13Q144.77-33.92 141.57-33.92ZM162.11-3.52L162.11-3.52L162.11-3.52Q160.13 1.28 153.79 1.28L153.79 1.28L153.79 1.28Q150.59 1.28 148.54-0.96L148.54-0.96L148.54-0.96Q146.88-2.82 146.88-4.93L146.88-4.93L146.88-4.93Q146.88-9.73 149.12-20.22L149.12-20.22L153.79-44.80L166.78-46.08L160.58-13.70L160.58-13.70Q159.49-8.96 159.49-7.30L159.49-7.30L159.49-7.30Q159.49-3.65 162.11-3.52ZM193.47-10.82L193.47-10.82L193.47-10.82Q195.07-9.73 195.07-7.33L195.07-7.33L195.07-7.33Q195.07-4.93 193.86-3.39L193.86-3.39L193.86-3.39Q192.64-1.86 190.66-0.83L190.66-0.83L190.66-0.83Q186.56 1.28 182.14 1.28L182.14 1.28L182.14 1.28Q177.73 1.28 175.14 0.32L175.14 0.32L175.14 0.32Q172.54-0.64 170.82-2.43L170.82-2.43L170.82-2.43Q167.42-5.82 167.42-12.03L167.42-12.03L167.42-12.03Q167.42-21.70 172.67-27.58L172.67-27.58L172.67-27.58Q178.30-33.92 188.10-33.92L188.10-33.92L188.10-33.92Q194.18-33.92 197.18-31.36L197.18-31.36L197.18-31.36Q199.42-29.44 199.42-26.30L199.42-26.30L199.42-26.30Q199.42-15.04 179.97-15.04L179.97-15.04L179.97-15.04Q179.71-13.38 179.71-11.97L179.71-11.97L179.71-11.97Q179.71-9.02 181.02-7.90L181.02-7.90L181.02-7.90Q182.34-6.78 184.77-6.78L184.77-6.78L184.77-6.78Q187.20-6.78 189.79-7.90L189.79-7.90L189.79-7.90Q192.38-9.02 193.47-10.82ZM180.42-17.79L180.42-17.79L180.42-17.79Q184.96-17.79 187.58-20.61L187.58-20.61L187.58-20.61Q190.21-23.30 190.21-27.58L190.21-27.58L190.21-27.58Q190.21-29.06 189.66-29.86L189.66-29.86L189.66-29.86Q189.12-30.66 188.03-30.66L188.03-30.66L188.03-30.66Q186.94-30.66 186.02-30.24L186.02-30.24L186.02-30.24Q185.09-29.82 184.13-28.42L184.13-28.42L184.13-28.42Q181.76-25.22 180.42-17.79ZM210.11 0.19L210.11 0.19L210.11 0.19Q208.06 1.28 205.25 1.28L205.25 1.28L205.25 1.28Q202.43 1.28 200.90-0.16L200.90-0.16L200.90-0.16Q199.36-1.60 199.36-4.38L199.36-4.38L199.36-4.38Q199.36-7.17 201.31-9.89L201.31-9.89L201.31-9.89Q203.26-12.61 206.18-14.14L206.18-14.14L206.18-14.14Q209.09-15.68 211.14-16.58L211.14-16.58L207.10-25.86L207.10-25.86Q206.02-28.22 203.97-28.22L203.97-28.22L203.46-28.16L203.26-28.16L203.26-28.16Q203.65-30.40 206.27-32.13L206.27-32.13L206.27-32.13Q208.90-33.92 211.90-33.92L211.90-33.92L211.90-33.92Q216.77-33.92 219.01-29.06L219.01-29.06L219.52-28.03L222.27-21.25L222.27-21.25Q224-22.02 224.74-23.46L224.74-23.46L224.74-23.46Q225.47-24.90 225.47-27.74L225.47-27.74L225.47-27.74Q225.47-30.59 223.94-32.38L223.94-32.38L223.94-32.38Q226.37-33.92 229.57-33.92L229.57-33.92L229.57-33.92Q235.33-33.92 235.33-28.35L235.33-28.35L235.33-28.35Q235.33-22.27 227.71-18.75L227.71-18.75L223.87-16.96L227.33-8.06L227.33-8.06Q228.35-5.38 230.21-4.22L230.21-4.22L230.21-4.22Q230.98-3.71 231.87-3.65L231.87-3.65L231.87-3.65Q229.95-0.51 225.79 0.90L225.79 0.90L225.79 0.90Q224.51 1.28 222.78 1.28L222.78 1.28L222.78 1.28Q221.06 1.28 219.07 0.10L219.07 0.10L219.07 0.10Q217.09-1.09 216.38-2.94L216.38-2.94L212.86-12.10L212.86-12.10Q209.28-10.50 209.28-4.67L209.28-4.67L209.28-4.67Q209.28-1.98 210.11 0.19Z" fill="#f00" stroke="#0f0" stroke-width="1.8"></path></g></g><g><g transform="translate(132.1450091302395, 99.00000381469727)"><path d="M30.21-33.92L30.21-33.92L30.21-33.92Q25.02-33.92 21.25-35.65L21.25-35.65L19.20-25.28L31.55-25.28L31.55-25.28Q31.55-21.89 29.86-19.74L29.86-19.74L29.86-19.74Q28.16-17.60 25.09-17.60L25.09-17.60L25.09-17.60Q21.76-17.60 18.69-18.82L18.69-18.82L18.69-18.82Q18.05-19.07 17.98-19.14L17.98-19.14L14.34 0L0.38 0L8.51-42.24L37.06-42.24L37.06-42.24Q37.06-38.34 35.23-36.13L35.23-36.13L35.23-36.13Q33.41-33.92 30.21-33.92ZM50.75-3.52L50.75-3.52L50.75-3.52Q48.77 1.28 42.43 1.28L42.43 1.28L42.43 1.28Q39.23 1.28 37.18-0.96L37.18-0.96L37.18-0.96Q35.52-2.82 35.52-4.93L35.52-4.93L35.52-4.93Q35.52-9.73 37.76-20.22L37.76-20.22L42.43-44.80L55.42-46.08L49.22-13.70L49.22-13.70Q48.13-8.96 48.13-7.30L48.13-7.30L48.13-7.30Q48.13-3.65 50.75-3.52ZM71.55-3.52L71.55-3.52L71.55-3.52Q69.57 1.28 63.23 1.28L63.23 1.28L63.23 1.28Q59.97 1.28 57.92-0.96L57.92-0.96L57.92-0.96Q56.19-2.94 56.19-4.93L56.19-4.93L56.19-4.93Q56.19-10.11 58.56-20.22L58.56-20.22L60.93-32.64L73.92-33.92L70.02-13.70L70.02-13.70Q68.93-8.96 68.93-7.30L68.93-7.30L68.93-7.30Q68.93-3.65 71.55-3.52ZM62.08-41.54L62.08-41.54L62.08-41.54Q62.08-44.03 64.16-45.38L64.16-45.38L64.16-45.38Q66.24-46.72 69.25-46.72L69.25-46.72L69.25-46.72Q72.26-46.72 74.08-45.38L74.08-45.38L74.08-45.38Q75.90-44.03 75.90-41.54L75.90-41.54L75.90-41.54Q75.90-39.04 73.89-37.76L73.89-37.76L73.89-37.76Q71.87-36.48 68.86-36.48L68.86-36.48L68.86-36.48Q65.86-36.48 63.97-37.76L63.97-37.76L63.97-37.76Q62.08-39.04 62.08-41.54ZM85.50 0.19L85.50 0.19L85.50 0.19Q83.46 1.28 80.64 1.28L80.64 1.28L80.64 1.28Q77.82 1.28 76.29-0.16L76.29-0.16L76.29-0.16Q74.75-1.60 74.75-4.38L74.75-4.38L74.75-4.38Q74.75-7.17 76.70-9.89L76.70-9.89L76.70-9.89Q78.66-12.61 81.57-14.14L81.57-14.14L81.57-14.14Q84.48-15.68 86.53-16.58L86.53-16.58L82.50-25.86L82.50-25.86Q81.41-28.22 79.36-28.22L79.36-28.22L78.85-28.16L78.66-28.16L78.66-28.16Q79.04-30.40 81.66-32.13L81.66-32.13L81.66-32.13Q84.29-33.92 87.30-33.92L87.30-33.92L87.30-33.92Q92.16-33.92 94.40-29.06L94.40-29.06L94.91-28.03L97.66-21.25L97.66-21.25Q99.39-22.02 100.13-23.46L100.13-23.46L100.13-23.46Q100.86-24.90 100.86-27.74L100.86-27.74L100.86-27.74Q100.86-30.59 99.33-32.38L99.33-32.38L99.33-32.38Q101.76-33.92 104.96-33.92L104.96-33.92L104.96-33.92Q110.72-33.92 110.72-28.35L110.72-28.35L110.72-28.35Q110.72-22.27 103.10-18.75L103.10-18.75L99.26-16.96L102.72-8.06L102.72-8.06Q103.74-5.38 105.60-4.22L105.60-4.22L105.60-4.22Q106.37-3.71 107.26-3.65L107.26-3.65L107.26-3.65Q105.34-0.51 101.18 0.90L101.18 0.90L101.18 0.90Q99.90 1.28 98.18 1.28L98.18 1.28L98.18 1.28Q96.45 1.28 94.46 0.10L94.46 0.10L94.46 0.10Q92.48-1.09 91.78-2.94L91.78-2.94L88.26-12.10L88.26-12.10Q84.67-10.50 84.67-4.67L84.67-4.67L84.67-4.67Q84.67-1.98 85.50 0.19ZM141.57-33.92L141.57-33.92L141.57-33.92Q136.38-33.92 132.61-35.65L132.61-35.65L130.56-25.28L142.91-25.28L142.91-25.28Q142.91-21.89 141.22-19.74L141.22-19.74L141.22-19.74Q139.52-17.60 136.45-17.60L136.45-17.60L136.45-17.60Q133.12-17.60 130.05-18.82L130.05-18.82L130.05-18.82Q129.41-19.07 129.34-19.14L129.34-19.14L125.70 0L111.74 0L119.87-42.24L148.42-42.24L148.42-42.24Q148.42-38.34 146.59-36.13L146.59-36.13L146.59-36.13Q144.77-33.92 141.57-33.92ZM162.11-3.52L162.11-3.52L162.11-3.52Q160.13 1.28 153.79 1.28L153.79 1.28L153.79 1.28Q150.59 1.28 148.54-0.96L148.54-0.96L148.54-0.96Q146.88-2.82 146.88-4.93L146.88-4.93L146.88-4.93Q146.88-9.73 149.12-20.22L149.12-20.22L153.79-44.80L166.78-46.08L160.58-13.70L160.58-13.70Q159.49-8.96 159.49-7.30L159.49-7.30L159.49-7.30Q159.49-3.65 162.11-3.52ZM193.47-10.82L193.47-10.82L193.47-10.82Q195.07-9.73 195.07-7.33L195.07-7.33L195.07-7.33Q195.07-4.93 193.86-3.39L193.86-3.39L193.86-3.39Q192.64-1.86 190.66-0.83L190.66-0.83L190.66-0.83Q186.56 1.28 182.14 1.28L182.14 1.28L182.14 1.28Q177.73 1.28 175.14 0.32L175.14 0.32L175.14 0.32Q172.54-0.64 170.82-2.43L170.82-2.43L170.82-2.43Q167.42-5.82 167.42-12.03L167.42-12.03L167.42-12.03Q167.42-21.70 172.67-27.58L172.67-27.58L172.67-27.58Q178.30-33.92 188.10-33.92L188.10-33.92L188.10-33.92Q194.18-33.92 197.18-31.36L197.18-31.36L197.18-31.36Q199.42-29.44 199.42-26.30L199.42-26.30L199.42-26.30Q199.42-15.04 179.97-15.04L179.97-15.04L179.97-15.04Q179.71-13.38 179.71-11.97L179.71-11.97L179.71-11.97Q179.71-9.02 181.02-7.90L181.02-7.90L181.02-7.90Q182.34-6.78 184.77-6.78L184.77-6.78L184.77-6.78Q187.20-6.78 189.79-7.90L189.79-7.90L189.79-7.90Q192.38-9.02 193.47-10.82ZM180.42-17.79L180.42-17.79L180.42-17.79Q184.96-17.79 187.58-20.61L187.58-20.61L187.58-20.61Q190.21-23.30 190.21-27.58L190.21-27.58L190.21-27.58Q190.21-29.06 189.66-29.86L189.66-29.86L189.66-29.86Q189.12-30.66 188.03-30.66L188.03-30.66L188.03-30.66Q186.94-30.66 186.02-30.24L186.02-30.24L186.02-30.24Q185.09-29.82 184.13-28.42L184.13-28.42L184.13-28.42Q181.76-25.22 180.42-17.79ZM210.11 0.19L210.11 0.19L210.11 0.19Q208.06 1.28 205.25 1.28L205.25 1.28L205.25 1.28Q202.43 1.28 200.90-0.16L200.90-0.16L200.90-0.16Q199.36-1.60 199.36-4.38L199.36-4.38L199.36-4.38Q199.36-7.17 201.31-9.89L201.31-9.89L201.31-9.89Q203.26-12.61 206.18-14.14L206.18-14.14L206.18-14.14Q209.09-15.68 211.14-16.58L211.14-16.58L207.10-25.86L207.10-25.86Q206.02-28.22 203.97-28.22L203.97-28.22L203.46-28.16L203.26-28.16L203.26-28.16Q203.65-30.40 206.27-32.13L206.27-32.13L206.27-32.13Q208.90-33.92 211.90-33.92L211.90-33.92L211.90-33.92Q216.77-33.92 219.01-29.06L219.01-29.06L219.52-28.03L222.27-21.25L222.27-21.25Q224-22.02 224.74-23.46L224.74-23.46L224.74-23.46Q225.47-24.90 225.47-27.74L225.47-27.74L225.47-27.74Q225.47-30.59 223.94-32.38L223.94-32.38L223.94-32.38Q226.37-33.92 229.57-33.92L229.57-33.92L229.57-33.92Q235.33-33.92 235.33-28.35L235.33-28.35L235.33-28.35Q235.33-22.27 227.71-18.75L227.71-18.75L223.87-16.96L227.33-8.06L227.33-8.06Q228.35-5.38 230.21-4.22L230.21-4.22L230.21-4.22Q230.98-3.71 231.87-3.65L231.87-3.65L231.87-3.65Q229.95-0.51 225.79 0.90L225.79 0.90L225.79 0.90Q224.51 1.28 222.78 1.28L222.78 1.28L222.78 1.28Q221.06 1.28 219.07 0.10L219.07 0.10L219.07 0.10Q217.09-1.09 216.38-2.94L216.38-2.94L212.86-12.10L212.86-12.10Q209.28-10.50 209.28-4.67L209.28-4.67L209.28-4.67Q209.28-1.98 210.11 0.19Z" fill="none" stroke="#fff" stroke-width="2.1"></path></g></g></g><style>text {
  font-size: 64px;
  font-family: Arial Black;
  dominant-baseline: central;
  text-anchor: middle;
}</style></svg>